<svg width="800" height="600" xmlns="http://www.w3.org/2000/svg">
 <g>
  <title>Layer 1</title>
  <path stroke-width="10" stroke="#000" id="svg_9" d="m467.94058,285.09105l0,-28.16487l-0.00843,0c-0.01192,-34.76131 -30.41794,-62.92618 -67.93004,-62.92618s-67.93469,28.17998 -67.93469,62.94126l0,0l0,28.14979l-24.56742,0l0,120.90894l185,0l0,-120.90894l-24.55942,0zm-114.41034,-28.14979c0,0 0,0 0,0c0,-23.75252 20.84862,-43.07031 46.47188,-43.07031c25.63962,0 46.48822,19.3178 46.48822,43.05523c0,0 0,0 0,0l0,28.16487l-92.9601,0l0,-28.14979z" fill="#fff"/>
  <ellipse stroke="#000" stroke-width="2" ry="19.5" rx="28" id="svg_10" cy="328" cx="400" fill="#000000"/>
  <path id="svg_12" d="m400.5,348l1,26" opacity="undefined" stroke-width="5" stroke="#000" fill="none"/>
 </g>

</svg>